<mxfile host="app.diagrams.net" modified="2022-05-20T00:56:09.948Z" agent="5.0 (Macintosh; Intel Mac OS X 10_15_7) AppleWebKit/537.36 (KHTML, like Gecko) Chrome/101.0.4951.54 Safari/537.36" etag="hU5U0k19ksQzJ1i4ywma" version="18.0.6" type="github">
  <diagram id="QgjdsrgUE2rLiytemq7n" name="Page-1">
    <mxGraphModel dx="3848" dy="813" grid="1" gridSize="10" guides="1" tooltips="1" connect="1" arrows="1" fold="1" page="1" pageScale="1" pageWidth="850" pageHeight="1100" math="0" shadow="0">
      <root>
        <mxCell id="0" />
        <mxCell id="1" parent="0" />
        <mxCell id="xrx-6XC1l5b0vt7ri7Mh-3" style="edgeStyle=orthogonalEdgeStyle;rounded=0;orthogonalLoop=1;jettySize=auto;html=1;dashed=1;" parent="1" source="xrx-6XC1l5b0vt7ri7Mh-1" edge="1">
          <mxGeometry relative="1" as="geometry">
            <mxPoint x="-1919" y="120" as="targetPoint" />
          </mxGeometry>
        </mxCell>
        <mxCell id="xrx-6XC1l5b0vt7ri7Mh-10" value="write k1=v1" style="edgeLabel;html=1;align=center;verticalAlign=middle;resizable=0;points=[];" parent="xrx-6XC1l5b0vt7ri7Mh-3" connectable="0" vertex="1">
          <mxGeometry x="-0.8356" y="4" relative="1" as="geometry">
            <mxPoint y="-6" as="offset" />
          </mxGeometry>
        </mxCell>
        <mxCell id="xrx-6XC1l5b0vt7ri7Mh-1" value="User1" style="shape=umlActor;verticalLabelPosition=bottom;verticalAlign=top;html=1;outlineConnect=0;" parent="1" vertex="1">
          <mxGeometry x="-2516.5" y="90" width="30" height="60" as="geometry" />
        </mxCell>
        <mxCell id="xrx-6XC1l5b0vt7ri7Mh-7" style="edgeStyle=orthogonalEdgeStyle;rounded=0;orthogonalLoop=1;jettySize=auto;html=1;dashed=1;" parent="1" source="xrx-6XC1l5b0vt7ri7Mh-4" edge="1">
          <mxGeometry relative="1" as="geometry">
            <mxPoint x="-1919" y="210" as="targetPoint" />
          </mxGeometry>
        </mxCell>
        <mxCell id="xrx-6XC1l5b0vt7ri7Mh-4" value="Leader" style="strokeWidth=2;html=1;shape=mxgraph.flowchart.database;whiteSpace=wrap;spacingTop=8;" parent="1" vertex="1">
          <mxGeometry x="-2529" y="180" width="55" height="60" as="geometry" />
        </mxCell>
        <mxCell id="xrx-6XC1l5b0vt7ri7Mh-8" style="edgeStyle=orthogonalEdgeStyle;rounded=0;orthogonalLoop=1;jettySize=auto;html=1;dashed=1;" parent="1" source="xrx-6XC1l5b0vt7ri7Mh-5" edge="1">
          <mxGeometry relative="1" as="geometry">
            <mxPoint x="-1919" y="280" as="targetPoint" />
          </mxGeometry>
        </mxCell>
        <mxCell id="xrx-6XC1l5b0vt7ri7Mh-5" value="&lt;p style=&quot;line-height: 1.2;&quot;&gt;Async#1&lt;br&gt;Follower&lt;/p&gt;" style="strokeWidth=2;html=1;shape=mxgraph.flowchart.database;whiteSpace=wrap;spacingTop=8;" parent="1" vertex="1">
          <mxGeometry x="-2529" y="250" width="55" height="60" as="geometry" />
        </mxCell>
        <mxCell id="xrx-6XC1l5b0vt7ri7Mh-9" style="edgeStyle=orthogonalEdgeStyle;rounded=0;orthogonalLoop=1;jettySize=auto;html=1;dashed=1;" parent="1" source="xrx-6XC1l5b0vt7ri7Mh-6" edge="1">
          <mxGeometry relative="1" as="geometry">
            <mxPoint x="-1919" y="350" as="targetPoint" />
          </mxGeometry>
        </mxCell>
        <mxCell id="xrx-6XC1l5b0vt7ri7Mh-6" value="Async#2&lt;br&gt;Follower" style="strokeWidth=2;html=1;shape=mxgraph.flowchart.database;whiteSpace=wrap;spacingTop=8;" parent="1" vertex="1">
          <mxGeometry x="-2529" y="320" width="55" height="60" as="geometry" />
        </mxCell>
        <mxCell id="xrx-6XC1l5b0vt7ri7Mh-11" value="" style="endArrow=classic;html=1;rounded=0;" parent="1" edge="1">
          <mxGeometry width="50" height="50" relative="1" as="geometry">
            <mxPoint x="-2399" y="120" as="sourcePoint" />
            <mxPoint x="-2359" y="210" as="targetPoint" />
          </mxGeometry>
        </mxCell>
        <mxCell id="xrx-6XC1l5b0vt7ri7Mh-14" value="" style="endArrow=classic;html=1;rounded=0;" parent="1" edge="1">
          <mxGeometry width="50" height="50" relative="1" as="geometry">
            <mxPoint x="-2319" y="210" as="sourcePoint" />
            <mxPoint x="-2289" y="280" as="targetPoint" />
          </mxGeometry>
        </mxCell>
        <mxCell id="b-8zLZydzfTKuxN5woJT-5" value="data replication" style="edgeLabel;html=1;align=center;verticalAlign=middle;resizable=0;points=[];" parent="xrx-6XC1l5b0vt7ri7Mh-14" connectable="0" vertex="1">
          <mxGeometry x="-0.2017" y="1" relative="1" as="geometry">
            <mxPoint x="-43" y="3" as="offset" />
          </mxGeometry>
        </mxCell>
        <mxCell id="xrx-6XC1l5b0vt7ri7Mh-15" value="" style="endArrow=classic;html=1;rounded=0;" parent="1" edge="1">
          <mxGeometry width="50" height="50" relative="1" as="geometry">
            <mxPoint x="-2319" y="210" as="sourcePoint" />
            <mxPoint x="-1960" y="350" as="targetPoint" />
          </mxGeometry>
        </mxCell>
        <mxCell id="b-8zLZydzfTKuxN5woJT-10" value="data replication" style="edgeLabel;html=1;align=center;verticalAlign=middle;resizable=0;points=[];" parent="xrx-6XC1l5b0vt7ri7Mh-15" connectable="0" vertex="1">
          <mxGeometry x="0.3155" y="-2" relative="1" as="geometry">
            <mxPoint x="-53" y="-45" as="offset" />
          </mxGeometry>
        </mxCell>
        <mxCell id="xrx-6XC1l5b0vt7ri7Mh-17" value="" style="endArrow=none;html=1;rounded=0;endFill=0;" parent="1" edge="1">
          <mxGeometry width="50" height="50" relative="1" as="geometry">
            <mxPoint x="-2359" y="210" as="sourcePoint" />
            <mxPoint x="-2320" y="210" as="targetPoint" />
          </mxGeometry>
        </mxCell>
        <mxCell id="b-8zLZydzfTKuxN5woJT-3" value="" style="endArrow=classic;html=1;rounded=0;" parent="1" edge="1">
          <mxGeometry width="50" height="50" relative="1" as="geometry">
            <mxPoint x="-2320" y="210" as="sourcePoint" />
            <mxPoint x="-2260" y="120" as="targetPoint" />
          </mxGeometry>
        </mxCell>
        <mxCell id="b-8zLZydzfTKuxN5woJT-8" value="OK" style="edgeLabel;html=1;align=center;verticalAlign=middle;resizable=0;points=[];" parent="b-8zLZydzfTKuxN5woJT-3" connectable="0" vertex="1">
          <mxGeometry x="-0.0179" y="-3" relative="1" as="geometry">
            <mxPoint x="8" as="offset" />
          </mxGeometry>
        </mxCell>
        <mxCell id="nLopHfRTD2Dx5EWVa3AB-1" style="edgeStyle=orthogonalEdgeStyle;rounded=0;orthogonalLoop=1;jettySize=auto;html=1;dashed=1;" parent="1" source="nLopHfRTD2Dx5EWVa3AB-3" edge="1">
          <mxGeometry relative="1" as="geometry">
            <mxPoint x="-1919" y="430" as="targetPoint" />
          </mxGeometry>
        </mxCell>
        <mxCell id="nLopHfRTD2Dx5EWVa3AB-3" value="User2" style="shape=umlActor;verticalLabelPosition=bottom;verticalAlign=top;html=1;outlineConnect=0;" parent="1" vertex="1">
          <mxGeometry x="-2516.5" y="400" width="30" height="60" as="geometry" />
        </mxCell>
        <mxCell id="nLopHfRTD2Dx5EWVa3AB-4" value="" style="endArrow=classic;html=1;rounded=0;" parent="1" edge="1">
          <mxGeometry width="50" height="50" relative="1" as="geometry">
            <mxPoint x="-2360" y="430" as="sourcePoint" />
            <mxPoint x="-2260" y="280" as="targetPoint" />
          </mxGeometry>
        </mxCell>
        <mxCell id="nLopHfRTD2Dx5EWVa3AB-5" value="read k1" style="edgeLabel;html=1;align=center;verticalAlign=middle;resizable=0;points=[];" parent="nLopHfRTD2Dx5EWVa3AB-4" connectable="0" vertex="1">
          <mxGeometry x="-0.0179" y="-3" relative="1" as="geometry">
            <mxPoint x="8" y="22" as="offset" />
          </mxGeometry>
        </mxCell>
        <mxCell id="nLopHfRTD2Dx5EWVa3AB-6" value="" style="endArrow=none;html=1;rounded=0;endFill=0;" parent="1" edge="1">
          <mxGeometry width="50" height="50" relative="1" as="geometry">
            <mxPoint x="-2260" y="279.5" as="sourcePoint" />
            <mxPoint x="-2221" y="279.5" as="targetPoint" />
          </mxGeometry>
        </mxCell>
        <mxCell id="nLopHfRTD2Dx5EWVa3AB-7" value="" style="endArrow=classic;html=1;rounded=0;" parent="1" edge="1">
          <mxGeometry width="50" height="50" relative="1" as="geometry">
            <mxPoint x="-2220" y="280" as="sourcePoint" />
            <mxPoint x="-2120" y="430" as="targetPoint" />
          </mxGeometry>
        </mxCell>
        <mxCell id="nLopHfRTD2Dx5EWVa3AB-8" value="v1" style="edgeLabel;html=1;align=center;verticalAlign=middle;resizable=0;points=[];" parent="nLopHfRTD2Dx5EWVa3AB-7" connectable="0" vertex="1">
          <mxGeometry x="0.3155" y="-2" relative="1" as="geometry">
            <mxPoint x="-14" as="offset" />
          </mxGeometry>
        </mxCell>
        <mxCell id="nLopHfRTD2Dx5EWVa3AB-9" value="" style="endArrow=classic;html=1;rounded=0;" parent="1" edge="1">
          <mxGeometry width="50" height="50" relative="1" as="geometry">
            <mxPoint x="-2110" y="430" as="sourcePoint" />
            <mxPoint x="-2070" y="350" as="targetPoint" />
          </mxGeometry>
        </mxCell>
        <mxCell id="nLopHfRTD2Dx5EWVa3AB-10" value="read k1" style="edgeLabel;html=1;align=center;verticalAlign=middle;resizable=0;points=[];" parent="nLopHfRTD2Dx5EWVa3AB-9" connectable="0" vertex="1">
          <mxGeometry x="-0.0179" y="-3" relative="1" as="geometry">
            <mxPoint x="18" y="-2" as="offset" />
          </mxGeometry>
        </mxCell>
        <mxCell id="nLopHfRTD2Dx5EWVa3AB-11" value="" style="endArrow=none;html=1;rounded=0;endFill=0;" parent="1" edge="1">
          <mxGeometry width="50" height="50" relative="1" as="geometry">
            <mxPoint x="-2070" y="349.5" as="sourcePoint" />
            <mxPoint x="-2031" y="349.5" as="targetPoint" />
          </mxGeometry>
        </mxCell>
        <mxCell id="nLopHfRTD2Dx5EWVa3AB-12" value="" style="endArrow=classic;html=1;rounded=0;" parent="1" edge="1">
          <mxGeometry width="50" height="50" relative="1" as="geometry">
            <mxPoint x="-2030" y="350" as="sourcePoint" />
            <mxPoint x="-1980" y="430" as="targetPoint" />
          </mxGeometry>
        </mxCell>
        <mxCell id="nLopHfRTD2Dx5EWVa3AB-13" value="no result" style="edgeLabel;html=1;align=center;verticalAlign=middle;resizable=0;points=[];" parent="nLopHfRTD2Dx5EWVa3AB-12" connectable="0" vertex="1">
          <mxGeometry x="0.3155" y="-2" relative="1" as="geometry">
            <mxPoint x="19" y="-14" as="offset" />
          </mxGeometry>
        </mxCell>
      </root>
    </mxGraphModel>
  </diagram>
</mxfile>
